<svg xmlns="http://www.w3.org/2000/svg" style="display:none">
  <!--
    Evolvus Core Quantum — SVG Icon Sprite
    Generated from Ionicons v7 paths (viewBox 0 0 512 512).
    Usage (web):  <svg><use href="/icons.svg#icon-flash" /></svg>
    Usage (native): see components/SvgIcon.tsx
    Optimized: metadata stripped, redundant groups removed, paths simplified.
  -->

  <!-- ── Tab-bar icons ───────────────────────────────────────────────── -->

  <symbol id="icon-stats-chart" viewBox="0 0 512 512">
    <rect x="32"  y="240" width="80" height="240" rx="8"/>
    <rect x="152" y="160" width="80" height="320" rx="8"/>
    <rect x="272" y="80"  width="80" height="400" rx="8"/>
    <rect x="392" y="32"  width="80" height="448" rx="8"/>
  </symbol>

  <symbol id="icon-trending-up" viewBox="0 0 512 512">
    <polyline points="352 144 448 144 448 240" fill="none" stroke="currentColor" stroke-width="32" stroke-linecap="round" stroke-linejoin="round"/>
    <polyline points="48 368 192 224 288 320 448 144" fill="none" stroke="currentColor" stroke-width="32" stroke-linecap="round" stroke-linejoin="round"/>
  </symbol>

  <symbol id="icon-swap-horizontal" viewBox="0 0 512 512">
    <polyline points="304 48 416 160 304 272" fill="none" stroke="currentColor" stroke-width="32" stroke-linecap="round" stroke-linejoin="round"/>
    <line x1="416" y1="160" x2="96" y2="160" stroke="currentColor" stroke-width="32" stroke-linecap="round"/>
    <polyline points="208 464 96 352 208 240" fill="none" stroke="currentColor" stroke-width="32" stroke-linecap="round" stroke-linejoin="round"/>
    <line x1="96" y1="352" x2="416" y2="352" stroke="currentColor" stroke-width="32" stroke-linecap="round"/>
  </symbol>

  <symbol id="icon-flash" viewBox="0 0 512 512">
    <path d="M315.27 33L96 292h192l-31.27 187L416 220H224l91.27-187z"/>
  </symbol>

  <symbol id="icon-flash-outline" viewBox="0 0 512 512">
    <path d="M315.27 33L96 292h192l-31.27 187L416 220H224l91.27-187z" fill="none" stroke="currentColor" stroke-width="32" stroke-linecap="round" stroke-linejoin="round"/>
  </symbol>

  <symbol id="icon-person" viewBox="0 0 512 512">
    <path d="M256 256c52.8 0 96-43.2 96-96s-43.2-96-96-96-96 43.2-96 96 43.2 96 96 96zm0 48c-63.6 0-192 32.1-192 96v48h384v-48c0-63.9-128.4-96-192-96z"/>
  </symbol>

  <!-- ── Navigation & UI icons ──────────────────────────────────────── -->

  <symbol id="icon-chevron-back" viewBox="0 0 512 512">
    <polyline points="328 112 184 256 328 400" fill="none" stroke="currentColor" stroke-width="48" stroke-linecap="round" stroke-linejoin="round"/>
  </symbol>

  <symbol id="icon-chevron-forward" viewBox="0 0 512 512">
    <polyline points="184 112 328 256 184 400" fill="none" stroke="currentColor" stroke-width="48" stroke-linecap="round" stroke-linejoin="round"/>
  </symbol>

  <symbol id="icon-chevron-down" viewBox="0 0 512 512">
    <polyline points="112 184 256 328 400 184" fill="none" stroke="currentColor" stroke-width="48" stroke-linecap="round" stroke-linejoin="round"/>
  </symbol>

  <symbol id="icon-arrow-back" viewBox="0 0 512 512">
    <polyline points="244 400 100 256 244 112" fill="none" stroke="currentColor" stroke-width="48" stroke-linecap="round" stroke-linejoin="round"/>
    <line x1="120" y1="256" x2="412" y2="256" stroke="currentColor" stroke-width="48" stroke-linecap="round"/>
  </symbol>

  <symbol id="icon-close" viewBox="0 0 512 512">
    <line x1="368" y1="368" x2="144" y2="144" stroke="currentColor" stroke-width="32" stroke-linecap="round"/>
    <line x1="368" y1="144" x2="144" y2="368" stroke="currentColor" stroke-width="32" stroke-linecap="round"/>
  </symbol>

  <symbol id="icon-close-circle" viewBox="0 0 512 512">
    <circle cx="256" cy="256" r="208" fill="none" stroke="currentColor" stroke-width="32"/>
    <line x1="320" y1="320" x2="192" y2="192" stroke="currentColor" stroke-width="32" stroke-linecap="round"/>
    <line x1="192" y1="320" x2="320" y2="192" stroke="currentColor" stroke-width="32" stroke-linecap="round"/>
  </symbol>

  <symbol id="icon-search" viewBox="0 0 512 512">
    <circle cx="221" cy="221" r="157" fill="none" stroke="currentColor" stroke-width="32"/>
    <line x1="338" y1="338" x2="464" y2="464" stroke="currentColor" stroke-width="32" stroke-linecap="round"/>
  </symbol>

  <!-- ── Status / feedback icons ────────────────────────────────────── -->

  <symbol id="icon-checkmark" viewBox="0 0 512 512">
    <polyline points="416 128 192 384 96 288" fill="none" stroke="currentColor" stroke-width="48" stroke-linecap="round" stroke-linejoin="round"/>
  </symbol>

  <symbol id="icon-checkmark-circle" viewBox="0 0 512 512">
    <path d="M448 256c0 106-86 192-192 192S64 362 64 256 150 64 256 64s192 86 192 192z" fill="none" stroke="currentColor" stroke-width="32"/>
    <polyline points="352 176 217.6 336 160 272" fill="none" stroke="currentColor" stroke-width="32" stroke-linecap="round" stroke-linejoin="round"/>
  </symbol>

  <symbol id="icon-alert-circle" viewBox="0 0 512 512">
    <circle cx="256" cy="256" r="208" fill="none" stroke="currentColor" stroke-width="32"/>
    <line x1="256" y1="137.6" x2="256" y2="265.6" stroke="currentColor" stroke-width="32" stroke-linecap="round"/>
    <line x1="256" y1="320" x2="256" y2="361.6" stroke="currentColor" stroke-width="32" stroke-linecap="round"/>
  </symbol>

  <symbol id="icon-alert-circle-outline" viewBox="0 0 512 512">
    <circle cx="256" cy="256" r="208" fill="none" stroke="currentColor" stroke-width="32"/>
    <line x1="256" y1="137.6" x2="256" y2="265.6" stroke="currentColor" stroke-width="32" stroke-linecap="round"/>
    <line x1="256" y1="320" x2="256" y2="361.6" stroke="currentColor" stroke-width="32" stroke-linecap="round"/>
  </symbol>

  <symbol id="icon-add" viewBox="0 0 512 512">
    <line x1="256" y1="96" x2="256" y2="416" stroke="currentColor" stroke-width="32" stroke-linecap="round"/>
    <line x1="96" y1="256" x2="416" y2="256" stroke="currentColor" stroke-width="32" stroke-linecap="round"/>
  </symbol>

  <!-- ── Domain icons ───────────────────────────────────────────────── -->

  <symbol id="icon-lock-closed" viewBox="0 0 512 512">
    <rect x="96" y="224" width="320" height="256" rx="32" ry="32"/>
    <path d="M176 224v-64a80 80 0 01160 0v64" fill="none" stroke="currentColor" stroke-width="32" stroke-linecap="round" stroke-linejoin="round"/>
    <circle cx="256" cy="340" r="20" fill="none" stroke="currentColor" stroke-width="8" opacity="0.5"/>
  </symbol>

  <symbol id="icon-lock-closed-outline" viewBox="0 0 512 512">
    <rect x="96" y="224" width="320" height="256" rx="32" ry="32" fill="none" stroke="currentColor" stroke-width="32"/>
    <path d="M176 224v-64a80 80 0 01160 0v64" fill="none" stroke="currentColor" stroke-width="32" stroke-linecap="round" stroke-linejoin="round"/>
    <circle cx="256" cy="340" r="20" fill="currentColor"/>
  </symbol>

  <symbol id="icon-analytics-outline" viewBox="0 0 512 512">
    <path d="M344 280l88-88M232 216l64 64M80 320l104-104" fill="none" stroke="currentColor" stroke-width="32" stroke-linecap="round" stroke-linejoin="round"/>
    <circle cx="456" cy="168" r="32" fill="none" stroke="currentColor" stroke-width="32"/>
    <circle cx="344" cy="280" r="32" fill="none" stroke="currentColor" stroke-width="32"/>
    <circle cx="232" cy="216" r="32" fill="none" stroke="currentColor" stroke-width="32"/>
    <circle cx="80" cy="320" r="32" fill="none" stroke="currentColor" stroke-width="32"/>
  </symbol>

  <symbol id="icon-trash-outline" viewBox="0 0 512 512">
    <polyline points="432 112 80 112" fill="none" stroke="currentColor" stroke-width="32" stroke-linecap="round" stroke-linejoin="round"/>
    <path d="M192 112V72a8 8 0 018-8h112a8 8 0 018 8v40M192 400V192M320 400V192" fill="none" stroke="currentColor" stroke-width="32" stroke-linecap="round"/>
    <path d="M80 112l32 320a16 16 0 0016 16h256a16 16 0 0016-16l32-320" fill="none" stroke="currentColor" stroke-width="32" stroke-linecap="round" stroke-linejoin="round"/>
  </symbol>

  <symbol id="icon-time-outline" viewBox="0 0 512 512">
    <circle cx="256" cy="256" r="208" fill="none" stroke="currentColor" stroke-width="32"/>
    <polyline points="256 128 256 272 352 272" fill="none" stroke="currentColor" stroke-width="32" stroke-linecap="round" stroke-linejoin="round"/>
  </symbol>

  <symbol id="icon-hardware-chip-outline" viewBox="0 0 512 512">
    <rect x="128" y="128" width="256" height="256" rx="16" ry="16" fill="none" stroke="currentColor" stroke-width="32"/>
    <rect x="176" y="176" width="160" height="160" rx="8" ry="8" fill="none" stroke="currentColor" stroke-width="32"/>
    <line x1="176" y1="64" x2="176" y2="128" stroke="currentColor" stroke-width="32" stroke-linecap="round"/>
    <line x1="256" y1="64" x2="256" y2="128" stroke="currentColor" stroke-width="32" stroke-linecap="round"/>
    <line x1="336" y1="64" x2="336" y2="128" stroke="currentColor" stroke-width="32" stroke-linecap="round"/>
    <line x1="176" y1="384" x2="176" y2="448" stroke="currentColor" stroke-width="32" stroke-linecap="round"/>
    <line x1="256" y1="384" x2="256" y2="448" stroke="currentColor" stroke-width="32" stroke-linecap="round"/>
    <line x1="336" y1="384" x2="336" y2="448" stroke="currentColor" stroke-width="32" stroke-linecap="round"/>
    <line x1="64"  y1="176" x2="128" y2="176" stroke="currentColor" stroke-width="32" stroke-linecap="round"/>
    <line x1="64"  y1="256" x2="128" y2="256" stroke="currentColor" stroke-width="32" stroke-linecap="round"/>
    <line x1="64"  y1="336" x2="128" y2="336" stroke="currentColor" stroke-width="32" stroke-linecap="round"/>
    <line x1="384" y1="176" x2="448" y2="176" stroke="currentColor" stroke-width="32" stroke-linecap="round"/>
    <line x1="384" y1="256" x2="448" y2="256" stroke="currentColor" stroke-width="32" stroke-linecap="round"/>
    <line x1="384" y1="336" x2="448" y2="336" stroke="currentColor" stroke-width="32" stroke-linecap="round"/>
  </symbol>

  <symbol id="icon-sparkles-outline" viewBox="0 0 512 512">
    <path d="M259.92 262.91L216.4 120 172.88 262.91 30 306.4l142.88 43.5L216.4 492l43.52-142.1L402.8 306.4l-142.88-43.49z" fill="none" stroke="currentColor" stroke-width="32" stroke-linecap="round" stroke-linejoin="round"/>
    <path d="M384 80l-26.56 56.56L300.88 163l56.56 26.44L384 246l26.56-56.56L467.12 163l-56.56-26.44L384 80z" fill="none" stroke="currentColor" stroke-width="32" stroke-linecap="round" stroke-linejoin="round"/>
    <path d="M128 28l-17.73 37.73L72.55 83.45l37.72 17.73L128 139l17.73-37.82 37.72-17.73-37.72-17.72L128 28z" fill="none" stroke="currentColor" stroke-width="32" stroke-linecap="round" stroke-linejoin="round"/>
  </symbol>

  <symbol id="icon-shield-checkmark-outline" viewBox="0 0 512 512">
    <path d="M256 32l176 72v112c0 108.8-80 204.8-176 232C160 420.8 80 324.8 80 216V104L256 32z" fill="none" stroke="currentColor" stroke-width="32" stroke-linecap="round" stroke-linejoin="round"/>
    <polyline points="176 261.33 215.45 304 336 179" fill="none" stroke="currentColor" stroke-width="32" stroke-linecap="round" stroke-linejoin="round"/>
  </symbol>

  <symbol id="icon-mail-outline" viewBox="0 0 512 512">
    <rect x="48" y="96" width="416" height="320" rx="40" ry="40" fill="none" stroke="currentColor" stroke-width="32"/>
    <polyline points="112 160 256 272 400 160" fill="none" stroke="currentColor" stroke-width="32" stroke-linecap="round" stroke-linejoin="round"/>
  </symbol>

  <symbol id="icon-warning-outline" viewBox="0 0 512 512">
    <path d="M256 80L16 432h480L256 80z" fill="none" stroke="currentColor" stroke-width="32" stroke-linecap="round" stroke-linejoin="round"/>
    <line x1="256" y1="208" x2="256" y2="296" stroke="currentColor" stroke-width="32" stroke-linecap="round"/>
    <line x1="256" y1="352" x2="256" y2="384" stroke="currentColor" stroke-width="32" stroke-linecap="round"/>
  </symbol>

  <symbol id="icon-refresh-outline" viewBox="0 0 512 512">
    <path d="M320 146s24.36-12-64-12a160 160 0 10160 160" fill="none" stroke="currentColor" stroke-width="32" stroke-linecap="round" stroke-linejoin="round"/>
    <polyline points="256 58 336 138 256 218" fill="none" stroke="currentColor" stroke-width="32" stroke-linecap="round" stroke-linejoin="round"/>
  </symbol>

</svg>
